<svg width="80" height="80" viewBox="0 0 80 80" fill="none" xmlns="http://www.w3.org/2000/svg">
  <path
    d="M33.3333 59.9999V36.6666M46.6667 59.9999V36.6666M60 59.9999V36.6666M10 73.3333H70M20 59.9999V36.6666M37.0633 7.34992C37.9773 6.90145 38.9819 6.66827 40 6.66827C41.0181 6.66827 42.0227 6.90145 42.9367 7.34992L69.07 20.1699C69.4085 20.3358 69.6807 20.6114 69.8423 20.9519C70.0039 21.2923 70.0454 21.6775 69.9599 22.0446C69.8744 22.4117 69.6671 22.7389 69.3717 22.973C69.0762 23.207 68.7102 23.334 68.3333 23.3333H11.6667C11.2901 23.3333 10.9246 23.2057 10.6297 22.9714C10.3349 22.7371 10.1281 22.4098 10.0431 22.043C9.95801 21.6761 9.99972 21.2912 10.1614 20.9511C10.3231 20.611 10.5952 20.3356 10.9333 20.1699L37.0633 7.34992Z"
    stroke="#ffbcaa" stroke-width="6.66667" stroke-linecap="round" stroke-linejoin="round" />
</svg>